<svg width="24" height="24" viewBox="0 0 24 24" fill="none" xmlns="http://www.w3.org/2000/svg">
<path fill-rule="evenodd" clip-rule="evenodd" d="M11.7541 1.99969C14.2284 1.99969 16.2459 4.00256 16.2728 6.47358L16.492 6.47459C19.254 6.47459 21.5 8.71959 21.5 11.4796V16.9956C21.5 19.7546 19.254 21.9996 16.492 21.9996H7.008C4.247 21.9996 2 19.7546 2 16.9956V11.4796C2 8.71959 4.247 6.47459 7.008 6.47459L7.212 6.47369L7.21834 6.27922C7.28114 5.14476 7.74837 4.10403 8.5501 3.31069C9.4081 2.45969 10.5601 2.03469 11.7541 1.99969ZM16.492 7.97459L16.273 7.97369L16.2731 9.55569C16.2731 9.96969 15.9371 10.3057 15.5231 10.3057C15.1091 10.3057 14.7731 9.96969 14.7731 9.55569L14.773 7.97369H8.711L8.7111 9.55569C8.7111 9.96969 8.3751 10.3057 7.9611 10.3057C7.5471 10.3057 7.2111 9.96969 7.2111 9.55569L7.211 7.97369L7.008 7.97459C5.074 7.97459 3.5 9.54659 3.5 11.4796V16.9956C3.5 18.9276 5.074 20.4996 7.008 20.4996H16.492C18.426 20.4996 20 18.9276 20 16.9956V11.4796C20 9.54659 18.426 7.97459 16.492 7.97459ZM11.7511 3.49969C10.9401 3.52769 10.1801 3.80769 9.6061 4.37569C9.04043 4.93644 8.72338 5.67976 8.71143 6.4736L14.771 6.47369L14.768 6.34632C14.6759 4.7615 13.3586 3.49969 11.7511 3.49969Z" fill="white"/>
</svg>
