<?xml version="1.0" standalone="no"?>
<!DOCTYPE svg PUBLIC "-//W3C//DTD SVG 20010904//EN"
 "http://www.w3.org/TR/2001/REC-SVG-20010904/DTD/svg10.dtd">
<svg version="1.0" xmlns="http://www.w3.org/2000/svg"
 width="1024.000000pt" height="1024.000000pt" viewBox="0 0 1024.000000 1024.000000"
 preserveAspectRatio="xMidYMid meet">

<g transform="translate(0.000000,1024.000000) scale(0.100000,-0.100000)"
fill="#000000" stroke="none">
<path d="M1875 7755 c-46 -25 -76 -56 -96 -100 -34 -73 -18 -149 43 -212 34
-35 81 -54 198 -77 258 -52 442 -97 465 -112 31 -20 45 -46 73 -134 11 -36 52
-162 90 -280 39 -118 125 -386 192 -595 67 -209 205 -636 306 -950 100 -313
225 -701 277 -862 l94 -292 -54 -223 c-47 -193 -54 -233 -50 -298 6 -121 70
-219 177 -272 l45 -23 1715 -3 1714 -2 53 25 c60 30 90 71 99 138 9 62 -23
128 -79 165 l-41 27 -1656 5 -1656 5 51 205 51 205 1639 5 c1517 5 1643 6
1683 22 95 39 166 105 205 194 9 21 64 228 122 459 137 544 306 1209 356 1403
21 84 39 177 39 205 -1 95 -56 174 -138 197 -42 11 -548 14 -555 3 -3 -5 2
-46 10 -93 20 -110 22 -434 4 -545 -35 -215 -85 -372 -181 -570 -253 -521
-728 -851 -1333 -926 -153 -18 -434 -7 -578 24 -258 56 -492 164 -684 316
-567 448 -784 1132 -600 1896 13 55 27 108 30 118 7 16 -18 17 -429 17 -374 0
-436 2 -436 14 0 33 -164 536 -193 591 -18 33 -55 83 -84 112 -84 83 -142 104
-453 169 -311 64 -390 73 -435 49z"/>
<path d="M5405 7643 c-84 -7 -260 -45 -348 -74 -365 -122 -686 -394 -862 -730
-100 -192 -149 -361 -164 -563 -34 -455 131 -878 469 -1199 208 -198 429 -316
722 -384 102 -24 132 -27 303 -27 173 0 201 3 310 28 153 36 235 65 366 132
410 209 717 607 816 1057 14 64 18 126 18 287 -1 177 -4 218 -23 299 -72 299
-216 549 -439 761 -307 292 -753 450 -1168 413z m15 -573 l0 -130 80 0 80 0 0
130 0 130 105 0 105 0 0 -130 0 -130 35 0 c44 0 145 -33 193 -64 62 -39 120
-105 154 -174 31 -62 33 -74 33 -167 0 -93 -2 -105 -33 -167 -20 -40 -50 -82
-76 -105 l-44 -39 44 -23 c59 -32 140 -119 170 -186 82 -178 41 -391 -100
-530 -91 -89 -220 -145 -336 -145 l-40 0 0 -120 0 -120 -105 0 -105 0 0 115 0
115 -80 0 -80 0 0 -115 0 -115 -100 0 -100 0 0 120 0 120 -180 0 -180 0 0 135
0 135 110 0 110 0 0 520 0 520 -110 0 -110 0 0 148 0 147 180 -3 180 -3 0 131
0 130 100 0 100 0 0 -130z"/>
<path d="M5370 6475 l0 -175 209 0 c199 0 209 1 241 23 93 63 111 175 43 266
-43 55 -69 61 -293 61 l-200 0 0 -175z"/>
<path d="M5370 5815 l0 -206 233 3 c262 3 282 8 341 82 29 35 31 43 31 121 0
78 -2 86 -31 122 -58 73 -79 78 -341 81 l-233 3 0 -206z"/>
<path d="M3972 3149 c-143 -28 -283 -152 -332 -294 -94 -275 74 -553 361 -598
141 -22 277 22 380 123 140 137 175 346 87 529 -86 180 -293 280 -496 240z"/>
<path d="M6398 3144 c-182 -44 -312 -187 -340 -374 -37 -247 128 -471 376
-512 187 -31 381 72 467 247 33 68 34 73 34 195 0 120 -1 128 -32 192 -59 126
-177 224 -303 252 -82 19 -126 19 -202 0z"/>
</g>
</svg>
