<?xml version="1.0" standalone="no"?>
<!DOCTYPE svg PUBLIC "-//W3C//DTD SVG 20010904//EN"
 "http://www.w3.org/TR/2001/REC-SVG-20010904/DTD/svg10.dtd">
<svg version="1.0" xmlns="http://www.w3.org/2000/svg"
 width="1024.000000pt" height="1024.000000pt" viewBox="0 0 1024.000000 1024.000000"
 preserveAspectRatio="xMidYMid meet">

<g transform="translate(0.000000,1024.000000) scale(0.100000,-0.100000)"
fill="#000000" stroke="none">
<path d="M4993 7610 c-32 -18 -164 -140 -350 -322 -482 -473 -798 -783 -1128
-1108 -170 -168 -438 -431 -595 -585 -157 -154 -295 -293 -307 -309 -47 -61
-22 -154 50 -187 37 -16 68 -19 280 -19 l237 0 0 -1073 c0 -1211 -5 -1134 77
-1213 77 -75 67 -74 680 -74 l542 0 3 883 c3 839 4 884 22 917 35 65 67 100
119 128 l52 27 445 0 445 0 47 -27 c25 -16 60 -45 77 -65 63 -77 61 -40 61
-995 l0 -868 548 0 c604 0 601 0 676 62 21 17 49 54 62 82 l24 51 0 1083 0
1082 242 0 c227 0 244 1 286 21 69 34 90 104 53 177 -10 20 -126 140 -257 267
-131 127 -421 408 -644 625 -223 217 -558 543 -745 725 -187 181 -403 391
-480 466 -276 269 -291 279 -404 279 -55 0 -75 -5 -118 -30z"/>
</g>
</svg>
