<?xml version="1.0" encoding="UTF-8"?>
<svg version="1.1" xmlns="http://www.w3.org/2000/svg" width="512" height="512">
<path d="M0 0 C1.14866043 -0.00101212 1.14866043 -0.00101212 2.32052612 -0.00204468 C13.38686086 0.01347979 23.87429901 0.39003788 34.625 3.25 C35.64787109 3.50740967 35.64787109 3.50740967 36.69140625 3.77001953 C75.51640099 13.62600163 107.18414522 38.82290941 127.8125 72.9375 C138.28564056 92.0381047 145.84910797 114.3497063 145.73852539 136.29663086 C145.73867142 137.06818512 145.73881744 137.83973938 145.7389679 138.63467407 C145.73827638 141.16142683 145.73051994 143.68810402 145.72265625 146.21484375 C145.72078936 147.97603821 145.71936674 149.73723318 145.71836853 151.49842834 C145.71456467 156.11631727 145.70475273 160.73417436 145.69366455 165.35205078 C145.68340446 170.07128468 145.67886108 174.79052377 145.67382812 179.50976562 C145.66312842 188.75652435 145.64607778 198.00325952 145.625 207.25 C146.40818604 207.5485791 147.19137207 207.8471582 147.99829102 208.15478516 C156.77132116 211.81272857 161.18513759 220.91815332 164.625 229.25 C165.44029898 232.02416401 165.75190493 234.49147142 165.75922108 237.37875366 C165.76367892 238.19791543 165.76813676 239.0170772 165.77272969 239.86106205 C165.77245315 241.20286612 165.77245315 241.20286612 165.77217102 242.57177734 C165.77584771 243.52636306 165.7795244 244.48094877 165.7833125 245.46446133 C165.79434873 248.67162547 165.79819312 251.87875721 165.80200195 255.0859375 C165.80826675 257.38229983 165.81491356 259.67866115 165.82191467 261.97502136 C165.84295902 269.52500706 165.85331876 277.07499296 165.86328125 284.625 C165.86732894 287.22500621 165.87144587 289.82501232 165.87563133 292.42501831 C165.89250184 303.24246455 165.90713544 314.05990786 165.91438007 324.87736511 C165.91628984 327.68338014 165.91821018 330.48939516 165.92016602 333.29541016 C165.92064976 333.9927949 165.9211335 334.69017964 165.9216319 335.40869725 C165.92992396 346.6941755 165.95524697 357.97954747 165.98774669 369.26497936 C166.02087469 380.86361526 166.03850176 392.46219178 166.04202431 404.06087494 C166.04437269 410.5681404 166.05330559 417.07523793 166.07848549 423.5824585 C166.10180838 429.70890139 166.10598227 435.8350663 166.09572411 441.96154213 C166.09522963 444.20441934 166.10152375 446.44731042 166.11528015 448.69014549 C166.24108244 470.42538139 166.24108244 470.42538139 161.625 480.25 C161.09519531 481.39855469 160.56539063 482.54710937 160.01953125 483.73046875 C151.70199708 497.96269389 140.17106337 506.99671461 124.3550756 511.61705029 C119.99580701 512.62771746 115.77383388 512.66730764 111.31594849 512.63768005 C110.32765136 512.64306559 109.33935423 512.64845113 108.3211087 512.65399987 C105.03572019 512.66821658 101.75073818 512.66119118 98.46533203 512.65405273 C96.09911782 512.65975959 93.73290636 512.66672507 91.36669922 512.67485046 C84.95755931 512.69276236 78.54855646 512.69161708 72.13939905 512.68590808 C68.13140943 512.68283998 64.12343162 512.68581133 60.11544418 512.69038582 C59.44862634 512.69113424 58.78180849 512.69188266 58.09478404 512.69265376 C56.73983415 512.69418535 55.38488427 512.6957237 54.02993439 512.69726873 C41.34319784 512.7109748 28.65652306 512.70556954 15.96978794 512.69408352 C4.38398707 512.68415412 -7.20165404 512.69709005 -18.78743027 512.72101771 C-30.70719219 512.74544811 -42.62687982 512.75500686 -54.54666626 512.74836498 C-61.22931091 512.74488137 -67.91185116 512.74738604 -74.59447861 512.76461601 C-80.88025525 512.78011606 -87.16572756 512.77609525 -93.45149231 512.75731087 C-95.75241667 512.75363346 -98.05336373 512.75670857 -100.35426712 512.76719666 C-122.637934 512.86098106 -122.637934 512.86098106 -132.375 508.25 C-133.52355469 507.72019531 -134.67210937 507.19039063 -135.85546875 506.64453125 C-150.09967925 498.31999265 -159.11820226 486.78981684 -163.74205029 470.96431148 C-164.73817026 466.69259789 -164.79259982 462.56961895 -164.76268005 458.19996643 C-164.76806559 457.2395486 -164.77345113 456.27913077 -164.77899987 455.28960937 C-164.79321053 452.09861967 -164.78619275 448.90804884 -164.77905273 445.71704102 C-164.78475987 443.41816883 -164.79172546 441.11929948 -164.79985046 438.82043457 C-164.81775827 432.59523904 -164.81661798 426.37018466 -164.81090808 420.14497113 C-164.80781299 414.94121857 -164.81391222 409.73749299 -164.81994683 404.53374428 C-164.83478407 391.55354351 -164.83118514 378.57342182 -164.81908352 365.59322136 C-164.80915185 354.33976924 -164.82209427 343.08648155 -164.84601771 331.83305479 C-164.87044291 320.25568867 -164.87960914 308.67840586 -164.87336498 297.10101455 C-164.86999833 290.61009802 -164.87239145 284.11931734 -164.88961601 277.62841988 C-164.90510874 271.52403463 -164.90110337 265.41996287 -164.88231087 259.3155899 C-164.87863158 257.08036038 -164.8817141 254.8451075 -164.89219666 252.60989952 C-164.95531056 238.03502369 -164.79683552 225.52453116 -154.375 214.25 C-147.21469466 207.25 -147.21469466 207.25 -144.375 207.25 C-144.38166183 206.29803238 -144.38832367 205.34606476 -144.39518738 204.36524963 C-144.45644615 195.32015401 -144.5011849 186.27510138 -144.53043652 177.22984409 C-144.54598142 172.58144434 -144.56701089 167.93321426 -144.60131836 163.28491211 C-144.63431626 158.78502208 -144.6519366 154.28529351 -144.65963173 149.78529167 C-144.66510372 148.08279827 -144.67578483 146.38031202 -144.69219017 144.67788887 C-145.0461934 106.35948608 -130.66484562 72.01973759 -104.375 44.25 C-103.55515625 43.36570313 -102.7353125 42.48140625 -101.890625 41.5703125 C-75.25563031 13.75329142 -38.07266042 0.02997327 0 0 Z M-79.93164062 63.79150391 C-80.40794922 64.27280762 -80.88425781 64.75411133 -81.375 65.25 C-82.24640625 66.09949219 -83.1178125 66.94898438 -84.015625 67.82421875 C-95.31588507 79.4265298 -103.27709214 93.95627643 -108.375 109.25 C-108.76300781 110.41402344 -109.15101563 111.57804687 -109.55078125 112.77734375 C-115.60623307 133.0576024 -114.63721505 154.62943873 -114.5 175.5625 C-114.48877531 178.26106184 -114.48068111 180.95963012 -114.47265625 183.65820312 C-114.45089508 190.18888379 -114.41765284 196.71942406 -114.375 203.25 C-113.45702637 203.64940796 -113.45702637 203.64940796 -112.52050781 204.05688477 C-111.31152832 204.5875354 -111.31152832 204.5875354 -110.078125 205.12890625 C-109.28051758 205.47767822 -108.48291016 205.8264502 -107.66113281 206.18579102 C-97.39861086 210.96305855 -91.41478374 219.31980915 -86.35546875 229.09765625 C-86.00653564 229.77135254 -85.65760254 230.44504883 -85.2980957 231.13916016 C-84.60907695 232.48574002 -83.93144144 233.83821655 -83.26635742 235.19677734 C-81.40282469 238.86517866 -80.2626896 240.84942072 -76.375 242.25 C-73.40789939 242.55356918 -73.40789939 242.55356918 -70.08119202 242.51069641 C-68.14011314 242.52132362 -68.14011314 242.52132362 -66.15982056 242.53216553 C-64.72772182 242.52987175 -63.29562341 242.52736206 -61.86352539 242.5246582 C-60.35382332 242.52900588 -58.84412346 242.53418921 -57.33442688 242.54014587 C-53.23526035 242.55354106 -49.136186 242.55411398 -45.03700185 242.55158257 C-41.61496787 242.55051323 -38.19295258 242.55539528 -34.7709226 242.560188 C-26.69793486 242.57128494 -18.62499364 242.57171951 -10.55200195 242.56567383 C-2.22339019 242.55963263 6.1050527 242.57194828 14.43363565 242.5932439 C21.58448932 242.6108559 28.73528921 242.6168619 35.88616377 242.61360615 C40.15696876 242.61179254 44.42765328 242.61443725 48.69843864 242.62832069 C52.71465253 242.64088796 56.73060302 242.6389655 60.74681282 242.62590981 C62.22020684 242.62354207 63.69361934 242.62628579 65.16699219 242.63453293 C67.17937338 242.64498433 69.19182948 242.63510603 71.20420837 242.6242218 C72.33005309 242.62438954 73.45589781 242.62455729 74.61585903 242.62473011 C78.01493599 242.20144104 79.88226412 241.26757533 82.625 239.25 C84.20962595 237.07387317 84.20962595 237.07387317 85.37890625 234.5390625 C85.84103516 233.62382812 86.30316406 232.70859375 86.77929688 231.765625 C87.24400391 230.81171875 87.70871094 229.8578125 88.1875 228.875 C95.34900145 214.41408648 95.34900145 214.41408648 101.8125 210.1875 C102.50730469 209.72214844 103.20210937 209.25679687 103.91796875 208.77734375 C106.34322526 207.40898113 108.74810198 206.27422242 111.29418945 205.15454102 C112.10507523 204.79707291 112.915961 204.4396048 113.75141907 204.07130432 C114.36970078 203.8002739 114.98798248 203.52924347 115.625 203.25 C115.67202206 196.05045408 115.70721438 188.850943 115.72862434 181.65127277 C115.73891705 178.30560505 115.75394853 174.96012503 115.77587891 171.61450195 C116.0499357 128.67625119 110.44213631 94.23730579 79.9375 62.1875 C62.99618198 45.71604904 39.21960931 33.84968499 15.625 31.25 C14.46355469 31.11722656 13.30210937 30.98445313 12.10546875 30.84765625 C-21.93563695 27.82705963 -55.82017982 39.48509274 -79.93164062 63.79150391 Z M-133.375 238.25 C-134.70089326 242.37765126 -134.51683117 246.54039624 -134.50871277 250.83268738 C-134.51097833 251.70771874 -134.51324388 252.58275011 -134.51557809 253.48429757 C-134.52191793 256.42208087 -134.52108873 259.35981803 -134.52026367 262.29760742 C-134.52325523 264.40179504 -134.52665775 266.50598211 -134.53044128 268.61016846 C-134.53928726 274.33143074 -134.54161969 280.05267807 -134.54225707 285.77394652 C-134.54320613 290.5501014 -134.54688453 295.32625279 -134.55042917 300.10240632 C-134.55857652 311.37336708 -134.5610132 322.64431984 -134.56030273 333.9152832 C-134.55970232 345.53838483 -134.57024629 357.16143999 -134.5860464 368.78452986 C-134.59912876 378.76428864 -134.60448632 388.74403224 -134.60384732 398.72379953 C-134.60359248 404.68373866 -134.60643607 410.64363653 -134.61702538 416.60356712 C-134.62671765 422.21203534 -134.62677773 427.82042296 -134.61950874 433.42889404 C-134.61846421 435.48435395 -134.62081798 437.5398189 -134.6268692 439.59527016 C-134.63461089 442.40773909 -134.62992984 445.21993124 -134.62223816 448.03239441 C-134.62738172 448.84000424 -134.63252529 449.64761407 -134.63782471 450.47969693 C-134.58389534 459.44349635 -132.98759599 467.11259469 -127.375 474.25 C-119.41826163 481.79870051 -110.66798212 482.40317812 -100.24172974 482.38371277 C-98.89471114 482.3871111 -98.89471114 482.3871111 -97.52048004 482.39057809 C-94.52291748 482.39688882 -91.52540048 482.39609061 -88.52783203 482.39526367 C-86.37394147 482.39825696 -84.22005144 482.40165988 -82.06616211 482.40544128 C-76.2231806 482.41426753 -70.38021373 482.4166188 -64.5372262 482.41725707 C-60.88523742 482.41796828 -57.23325235 482.42010393 -53.5812645 482.42275429 C-40.83656325 482.43200268 -28.09187246 482.43608975 -15.34716797 482.43530273 C-3.47349976 482.43470186 8.40012303 482.44525694 20.27377975 482.4610464 C30.47440392 482.47412698 40.67501326 482.47948642 50.87564576 482.47884732 C56.96520785 482.47859252 63.05472956 482.48143425 69.14428329 482.49202538 C74.87180323 482.50171519 80.59924423 482.50177942 86.32676697 482.49450874 C88.42576844 482.49346405 90.52477484 482.49581891 92.62376785 482.5018692 C95.4951917 482.50960833 98.36634427 482.50493159 101.23776245 482.49723816 C102.47528977 482.5049535 102.47528977 482.5049535 103.73781765 482.51282471 C113.21542839 482.45694213 121.46567866 480.7914437 128.625 474.25 C135.0271033 466.10308867 135.77616618 458.33549836 135.76544189 448.29309082 C135.76841302 447.41408505 135.77138414 446.53507928 135.7744453 445.62943697 C135.78308814 442.69630758 135.78463676 439.76321922 135.78613281 436.83007812 C135.79076393 434.72220269 135.79578899 432.6143281 135.80117798 430.50645447 C135.81427142 424.78963946 135.8207404 419.07283618 135.82518864 413.35600853 C135.82812293 409.78376992 135.83222831 406.21153449 135.83669281 402.63929749 C135.85035666 391.46028963 135.86003004 380.28128909 135.8638947 369.10227346 C135.86837967 356.20071186 135.88595261 343.29925599 135.9148953 330.39772654 C135.93650097 320.42048631 135.94659831 310.44327586 135.94793582 300.46601248 C135.94898419 294.50839259 135.95489958 288.55087223 135.97275543 282.59327698 C135.98921784 276.99213512 135.99140046 271.39116786 135.98261642 265.79001045 C135.9818452 263.73531693 135.98619993 261.68061408 135.99607468 259.62594414 C136.0087716 256.81939087 136.00292965 254.01345816 135.99249268 251.20690918 C136.00054908 250.39552002 136.00860548 249.58413087 136.01690602 248.74815416 C135.9715724 243.52984543 135.12966851 239.86228391 132.625 235.25 C129.48043449 233.15362299 127.46405324 232.88443555 123.7578125 232.59375 C118.83438569 234.10865056 116.37477621 239.53303943 114.08984375 243.81640625 C113.23999715 245.47800742 112.39766085 247.14346913 111.5625 248.8125 C104.74570389 262.37301783 104.74570389 262.37301783 97.75 266.4375 C96.51636719 267.17033203 96.51636719 267.17033203 95.2578125 267.91796875 C89.93135867 270.61280666 85.40213863 271.50143989 79.440979 271.51742554 C78.39031616 271.52422221 78.39031616 271.52422221 77.3184278 271.53115618 C74.983376 271.54376444 72.64855852 271.54218215 70.31347656 271.54052734 C68.63425397 271.5465149 66.95503412 271.55332097 65.27581787 271.56088257 C60.72191319 271.57852831 56.16808371 271.5832374 51.61414814 271.58451414 C48.76602971 271.5859373 45.91793029 271.59021006 43.06981659 271.59550858 C33.1249826 271.61400532 23.18020218 271.62217978 13.23535156 271.62060547 C3.97972919 271.61940471 -5.27565974 271.64049506 -14.53122306 271.6720928 C-22.48898274 271.69828733 -30.44666634 271.70897141 -38.40446877 271.70769465 C-43.15219346 271.70718588 -47.8997107 271.71282184 -52.64739227 271.73405075 C-57.11593641 271.75348632 -61.58407638 271.75352144 -66.05263519 271.73901749 C-67.68680414 271.73693475 -69.32099873 271.7415982 -70.9551239 271.7537384 C-79.76709992 271.81493067 -87.42619306 271.55502564 -95.375 267.25 C-96.03513973 266.89307257 -96.69527946 266.53614513 -97.37542343 266.16840172 C-106.02441153 261.13969855 -110.24771162 249.88558251 -114.62280273 241.28955078 C-116.87239573 236.76501236 -116.87239573 236.76501236 -120.375 233.25 C-126.68035012 232.43640644 -129.3754645 232.917286 -133.375 238.25 Z " fill="#000000" transform="translate(255.375,-0.24999999999999997)"/>
<path d="M0 0 C9.47463573 6.94911196 16.95161439 16.64389635 19.421875 28.35546875 C20.50521044 40.05960546 20.16663124 50.86926582 14.421875 61.35546875 C13.85082031 61.94328125 13.27976562 62.53109375 12.69140625 63.13671875 C8.90991607 69.74560006 14.14999984 81.37169958 15.984375 88.16796875 C16.31373047 89.36228516 16.64308594 90.55660156 16.98242188 91.78710938 C21.66898428 109.61157137 21.66898428 109.61157137 17.734375 117.91796875 C14.44822805 121.38174526 11.94126189 123.17666395 7.12757874 123.7431488 C5.87770676 123.74855179 4.62783478 123.75395477 3.34008789 123.75952148 C2.30006371 123.76981636 2.30006371 123.76981636 1.23902893 123.78031921 C-1.04268128 123.79855321 -3.32370163 123.79475479 -5.60546875 123.7890625 C-7.19820885 123.79362606 -8.79094697 123.79893216 -10.38368225 123.8049469 C-13.71835337 123.81387137 -17.05278492 123.81146268 -20.38745117 123.80151367 C-24.6524447 123.7900265 -28.91660997 123.81023427 -33.18149471 123.83943081 C-36.46986611 123.85781257 -39.75803976 123.85749644 -43.04644966 123.85179329 C-44.61846643 123.85164031 -46.1904968 123.85766572 -47.76246452 123.87008476 C-49.96447976 123.8850308 -52.16497439 123.87429351 -54.36694336 123.85717773 C-55.61761093 123.85701157 -56.8682785 123.8568454 -58.15684509 123.85667419 C-63.18306387 123.12035086 -66.36421989 120.94519042 -69.42578125 116.93579102 C-73.71672886 107.32752294 -69.20132831 95.54041547 -66.578125 85.91796875 C-66.00237095 83.76879286 -65.43096679 81.61863008 -64.86621094 79.46653748 C-64.35712502 77.53207161 -63.83519571 75.60099895 -63.3125 73.67016602 C-62.14271778 68.42655161 -62.14271778 68.42655161 -63.56640625 63.43359375 C-64.00339844 62.8303125 -64.44039062 62.22703125 -64.890625 61.60546875 C-69.88765429 54.70266553 -71.14229007 46.94611534 -71.078125 38.60546875 C-71.07240479 37.73365967 -71.06668457 36.86185059 -71.06079102 35.96362305 C-70.71006803 23.17817592 -65.65081692 13.82981972 -56.99609375 4.68359375 C-41.74951 -9.70977485 -17.37512065 -11.0832209 0 0 Z M-38.453125 30.48046875 C-40.14253589 34.79785213 -40.23972318 38.78309024 -39.578125 43.35546875 C-37.74883656 46.9462942 -35.73307045 49.2005233 -32.890625 52.04296875 C-29.77842506 55.15516869 -29.60842145 56.88114001 -29.328125 61.26953125 C-29.39670804 67.31708565 -31.00468082 72.92573549 -32.578125 78.73046875 C-33.14360795 80.86249231 -33.70624555 82.99527319 -34.265625 85.12890625 C-34.51699219 86.06138184 -34.76835937 86.99385742 -35.02734375 87.95458984 C-35.6899249 90.43226832 -35.6899249 90.43226832 -35.578125 93.35546875 C-28.978125 93.35546875 -22.378125 93.35546875 -15.578125 93.35546875 C-16.53852922 87.59304344 -17.64893613 81.95633131 -19.15136719 76.31420898 C-23.3904452 60.30512456 -23.3904452 60.30512456 -19.890625 53.60546875 C-17.67748121 50.4951045 -15.34496098 47.97274603 -12.578125 45.35546875 C-10.72194293 41.64310461 -11.13002519 37.40703787 -11.578125 33.35546875 C-13.74111337 28.94938132 -15.97492979 26.15671905 -20.578125 24.35546875 C-28.26899711 23.31198359 -33.17484016 24.49841259 -38.453125 30.48046875 Z " fill="#000000" transform="translate(281.578125,328.64453125)"/>
</svg>
